<svg width="70" height="54" viewBox="0 0 70 54" fill="none" xmlns="http://www.w3.org/2000/svg">
<path d="M38 24.2268C38 22.4447 39.4447 21 41.2268 21V21C42.331 21 43.3586 21.5647 43.9506 22.4969L46.6084 26.6817C50.0987 32.1776 58.1373 32.125 61.5554 26.5839L64.0597 22.5242C64.6441 21.5769 65.6778 21 66.7909 21V21C68.5632 21 70 22.4367 70 24.2091L70 38C70 46.8366 62.8366 54 54 54V54C45.1634 54 38 46.8366 38 38L38 24.2268Z" fill="white"/>
<path d="M33 29.6528C33 31.5014 31.5014 33 29.6528 33V33C28.5239 33 27.4711 32.431 26.8526 31.4867L24.084 27.2593C20.4509 21.7121 12.3027 21.7661 8.74354 27.3609L6.1372 31.458C5.52625 32.4184 4.46691 33 3.32866 33V33C1.49029 33 -3.02054e-07 31.5097 -3.02054e-07 29.6713V16.5C-3.02054e-07 7.3873 7.3873 -3.02054e-07 16.5 -3.02054e-07V-3.02054e-07C25.6127 -3.02054e-07 33 7.3873 33 16.5V29.6528Z" fill="white"/>
</svg>
