<svg width="22" height="22" viewBox="0 0 22 22" fill="none" xmlns="http://www.w3.org/2000/svg">
<path d="M21.5 12.7547V21C21.5 21.2761 21.2761 21.5 21 21.5H15C14.7239 21.5 14.5 21.2761 14.5 21V15.831C14.5 15.1966 14.3276 14.5742 14.0012 14.0302C12.6418 11.7645 9.35819 11.7645 7.99877 14.0302C7.6724 14.5742 7.5 15.1966 7.5 15.831V21C7.5 21.2761 7.27614 21.5 7 21.5H1C0.723858 21.5 0.5 21.2761 0.5 21V12.7547C0.5 12.3899 0.632937 12.0376 0.87393 11.7638L10.6246 0.683398C10.8237 0.45715 11.1763 0.45715 11.3754 0.683398L21.1261 11.7638C21.3671 12.0376 21.5 12.3899 21.5 12.7547Z" stroke="black"/>
</svg>
