<svg width="59" height="59" viewBox="0 0 59 59" fill="none" xmlns="http://www.w3.org/2000/svg">
<path d="M28.1658 28.166V28.166C25.9462 28.166 23.9549 26.8014 23.1538 24.7313L22.3437 22.6377C20.2246 17.1616 12.4699 17.1799 10.3768 22.666L9.59118 24.7251C8.80065 26.7971 6.81315 28.166 4.59548 28.166V28.166V16.3808C4.59548 9.87206 9.87188 4.59567 16.3807 4.59567V4.59567C22.8894 4.59567 28.1658 9.87207 28.1658 16.3808V28.166Z" fill="#531253"/>
<path d="M55.037 4.71997V4.71997C55.037 6.93962 53.6724 8.9309 51.6023 9.73196L49.5086 10.5422C44.0325 12.6612 44.0509 20.4159 49.537 22.509L51.5961 23.2946C53.668 24.0852 55.037 26.0727 55.037 28.2903V28.2903H43.2518C36.743 28.2903 31.4666 23.0139 31.4666 16.5051V16.5051C31.4666 9.99637 36.743 4.71997 43.2518 4.71997L55.037 4.71997Z" fill="#B9B8B8"/>
<path d="M28.2903 31.4666V31.4666C28.2903 33.6862 26.9257 35.6775 24.8557 36.4785L22.762 37.2887C17.2859 39.4078 17.3043 47.1625 22.7903 49.2556L24.8494 50.0412C26.9214 50.8317 28.2903 52.8192 28.2903 55.0369V55.0369H16.5052C9.99639 55.0369 4.71999 49.7605 4.71999 43.2517V43.2517C4.71999 36.743 9.9964 31.4666 16.5052 31.4666H28.2903Z" fill="#F5F5F5"/>
<path d="M31.4271 31.5752H54.9974V31.5752C54.9974 34.1597 52.9022 36.2794 50.3177 36.2794V36.2794C47.7332 36.2794 45.638 38.3746 45.638 40.9591V52.6331C45.638 54.1026 44.4468 55.2938 42.9773 55.2938V55.2938C41.5079 55.2938 40.3167 54.1026 40.3167 52.6331V40.7242C40.3167 38.2694 38.3267 36.2794 35.8719 36.2794V36.2794C33.4171 36.2794 31.4271 34.2894 31.4271 31.8346V31.5752Z" fill="#531253"/>
</svg>
