<svg width="52" height="52" viewBox="0 0 52 52" fill="none" xmlns="http://www.w3.org/2000/svg">
<g filter="url(#filter0_d_59_794)">
<circle cx="26" cy="22" r="20" fill="#9B2DD8"/>
<path d="M18.0859 33.9453C19.668 33.9453 22.9023 32.3516 25.2812 30.6641C33.4492 30.8867 39.5781 26.1875 39.5781 20.0469C39.5781 14.1523 33.6719 9.39453 26.2891 9.39453C18.9062 9.39453 13 14.1523 13 20.0469C13 23.8906 15.4609 27.3008 19.1641 29.0117C18.6367 30.043 17.6523 31.4258 17.125 32.1172C16.5039 32.9258 16.8789 33.9453 18.0859 33.9453ZM19.3164 32C19.2227 32.0352 19.1875 31.9648 19.2461 31.8945C19.9023 31.0859 20.8398 29.8672 21.2383 29.1055C21.5664 28.5078 21.4844 27.9688 20.7344 27.6172C17.0547 25.9062 14.9453 23.1758 14.9453 20.0469C14.9453 15.2539 19.9727 11.3398 26.2891 11.3398C32.6172 11.3398 37.6445 15.2539 37.6445 20.0469C37.6445 24.8516 32.6172 28.7656 26.2891 28.7656C26.0547 28.7656 25.6914 28.7539 25.2227 28.7422C24.7305 28.7305 24.3555 28.8945 23.9102 29.2461C22.4688 30.2891 20.3828 31.5664 19.3164 32Z" fill="#212121"/>
</g>
<defs>
<filter id="filter0_d_59_794" x="0" y="0" width="52" height="52" filterUnits="userSpaceOnUse" color-interpolation-filters="sRGB">
<feFlood flood-opacity="0" result="BackgroundImageFix"/>
<feColorMatrix in="SourceAlpha" type="matrix" values="0 0 0 0 0 0 0 0 0 0 0 0 0 0 0 0 0 0 127 0" result="hardAlpha"/>
<feOffset dy="4"/>
<feGaussianBlur stdDeviation="3"/>
<feComposite in2="hardAlpha" operator="out"/>
<feColorMatrix type="matrix" values="0 0 0 0 0 0 0 0 0 0 0 0 0 0 0 0 0 0 0.2 0"/>
<feBlend mode="normal" in2="BackgroundImageFix" result="effect1_dropShadow_59_794"/>
<feBlend mode="normal" in="SourceGraphic" in2="effect1_dropShadow_59_794" result="shape"/>
</filter>
</defs>
</svg>
