<svg width="24" height="24" viewBox="0 0 24 24" fill="none" xmlns="http://www.w3.org/2000/svg">
<path fill-rule="evenodd" clip-rule="evenodd" d="M6.48535 18.4284C10.5924 17.8284 13.4202 17.88 17.5326 18.4494C17.8304 18.4926 18.1025 18.6421 18.2987 18.8702C18.4949 19.0984 18.6019 19.3899 18.6 19.6908C18.6 19.9788 18.501 20.2584 18.3222 20.4768C18.0105 20.8576 17.6913 21.2321 17.3646 21.6H18.9492C19.0488 21.4812 19.149 21.36 19.2504 21.237C19.6062 20.8006 19.8004 20.2546 19.8 19.6914C19.8 18.4764 18.9132 17.4294 17.697 17.2614C13.4874 16.6788 10.545 16.623 6.31195 17.2416C5.08315 17.421 4.19995 18.4842 4.19995 19.7076C4.19995 20.2506 4.37695 20.7876 4.71235 21.2226C4.81135 21.351 4.90915 21.477 5.00635 21.6006H6.55255C6.2486 21.2367 5.95214 20.8666 5.66335 20.4906C5.49173 20.2655 5.39915 19.9901 5.39995 19.707C5.39995 19.0608 5.86435 18.519 6.48535 18.4284ZM12 12.6C12.4727 12.6 12.9408 12.5069 13.3776 12.326C13.8144 12.1451 14.2112 11.8799 14.5455 11.5456C14.8798 11.2113 15.145 10.8144 15.3259 10.3777C15.5068 9.9409 15.6 9.47277 15.6 9.00001C15.6 8.52725 15.5068 8.05912 15.3259 7.62235C15.145 7.18558 14.8798 6.78872 14.5455 6.45443C14.2112 6.12014 13.8144 5.85496 13.3776 5.67405C12.9408 5.49313 12.4727 5.40001 12 5.40001C11.0452 5.40001 10.1295 5.7793 9.45437 6.45443C8.77924 7.12956 8.39995 8.04523 8.39995 9.00001C8.39995 9.95479 8.77924 10.8705 9.45437 11.5456C10.1295 12.2207 11.0452 12.6 12 12.6V12.6ZM12 13.8C13.273 13.8 14.4939 13.2943 15.3941 12.3941C16.2942 11.494 16.8 10.2731 16.8 9.00001C16.8 7.72697 16.2942 6.50607 15.3941 5.6059C14.4939 4.70572 13.273 4.20001 12 4.20001C10.7269 4.20001 9.50601 4.70572 8.60584 5.6059C7.70566 6.50607 7.19995 7.72697 7.19995 9.00001C7.19995 10.2731 7.70566 11.494 8.60584 12.3941C9.50601 13.2943 10.7269 13.8 12 13.8V13.8Z" fill="black"/>
<path fill-rule="evenodd" clip-rule="evenodd" d="M12 22.8C17.9646 22.8 22.8 17.9646 22.8 12C22.8 6.0354 17.9646 1.2 12 1.2C6.0354 1.2 1.2 6.0354 1.2 12C1.2 17.9646 6.0354 22.8 12 22.8ZM12 24C18.6276 24 24 18.6276 24 12C24 5.3724 18.6276 0 12 0C5.3724 0 0 5.3724 0 12C0 18.6276 5.3724 24 12 24Z" fill="black"/>
</svg>
