<svg width="52" height="52" viewBox="0 0 52 52" fill="none" xmlns="http://www.w3.org/2000/svg">
<g filter="url(#filter0_d_59_793)">
<circle cx="26" cy="22" r="20" fill="#9B2DD8"/>
<path d="M18.2923 32.8202C18.7161 33.1308 19.2282 33.0332 19.855 32.5717L26 28.0455L32.145 32.5717C32.7718 33.0332 33.2927 33.1308 33.7077 32.8202C34.1138 32.5096 34.2109 31.9949 33.9637 31.2494L31.5534 23.9897L37.7425 19.5168C38.3694 19.0641 38.6166 18.5938 38.4488 18.0968C38.2899 17.6175 37.8308 17.3602 37.0362 17.369L29.4433 17.4134L27.1213 10.1271C26.8829 9.37275 26.5121 9 26 9C25.4879 9 25.1171 9.37275 24.8787 10.1271L22.5567 17.4134L14.9638 17.369C14.178 17.3602 13.7101 17.6175 13.5512 18.0968C13.3834 18.5938 13.6306 19.0641 14.2575 19.5168L20.4466 23.9897L18.0451 31.2494C17.7891 31.9949 17.8862 32.5096 18.2923 32.8202Z" stroke="#020202" stroke-width="2" stroke-linecap="round" stroke-linejoin="round"/>
</g>
<defs>
<filter id="filter0_d_59_793" x="0" y="0" width="52" height="52" filterUnits="userSpaceOnUse" color-interpolation-filters="sRGB">
<feFlood flood-opacity="0" result="BackgroundImageFix"/>
<feColorMatrix in="SourceAlpha" type="matrix" values="0 0 0 0 0 0 0 0 0 0 0 0 0 0 0 0 0 0 127 0" result="hardAlpha"/>
<feOffset dy="4"/>
<feGaussianBlur stdDeviation="3"/>
<feComposite in2="hardAlpha" operator="out"/>
<feColorMatrix type="matrix" values="0 0 0 0 0 0 0 0 0 0 0 0 0 0 0 0 0 0 0.2 0"/>
<feBlend mode="normal" in2="BackgroundImageFix" result="effect1_dropShadow_59_793"/>
<feBlend mode="normal" in="SourceGraphic" in2="effect1_dropShadow_59_793" result="shape"/>
</filter>
</defs>
</svg>
